<svg xmlns="http://www.w3.org/2000/svg" viewBox="0 0 841.9 595.3">
    <g fill="#00394f">
        <path d="M420.3 186.5 l 12 4 8 4 8 8 0 16 -4 10 -2 6 0 14 10 4 16 10 10 6 16 8 6 4 10 6 10 4 -8 6 0 12 -6 20 8 10 10 6 20 0 18 6 10 10 -2 8 -4 14 -6 18 -8 6 -10 8 -10 10 -4 12 -6 14 -10 10 -20 0 -12 0 0 16 -8 10 -12 -4 -4 -2 -2 8 -8 -10 -6 -8 -10 -20 -4 -4 -8 -14 -6 -10 -6 -10 -6 -12 -10 -10 -10 -8 -12 -6 -10 -6 -10 -4 -24 -8 -6 -4 -12 -4 -14 -2 -12 -4 -2 -20 -2 -12 -2 -26 0 -8 0 -20 12 4 10 2 10 2 10 -2 12 -6 16 -10 6 -4 6 -6 22 -24 10 -8 10 -10 8 -10 z " />
    </g>
</svg>