<svg id="eiaUstE9zyn1" xmlns="http://www.w3.org/2000/svg" xmlns:xlink="http://www.w3.org/1999/xlink" viewBox="0 0 841.9 595.3" shape-rendering="geometricPrecision" text-rendering="geometricPrecision"><g transform="matrix(2.406202 0 0 1.745045-597.595278-291.302688)"><path d="M420.3,186.5l12,4l8,4l8,8v16l-4,10-2,6v14l10,4l16,10l10,6l16,8l6,4l10,6l10,4-8,6v12l-6,20l8,10l10,6h20l18,6l10,10-2,8-4,14-6,18-8,6-10,8-10,10-4,12-6,14-10,10h-20-12v16l-8,10-12-4-4-2-2,8-8-10-6-8-10-20-4-4-8-14-6-10-6-10-6-12-10-10-10-8-12-6-10-6-10-4-24-8-6-4-12-4-14-2-12-4-2-20-2-12-2-26v-8-20l12,4l10,2l10,2l10-2l12-6l16-10l6-4l6-6l22-24l10-8l10-10l8-10Z" fill="#92b4c1"/></g><path d="M466.667867,142.340995q-57.748848,24.43063-161.760652-52.35135L202.665183,337.786035l-50.473915-164.03423" transform="translate(.000001 0)" fill="none" stroke="#3f5787" stroke-width="1.6838"/></svg>
