<?xml version="1.0" encoding="utf-8"?>
<!-- Generator: Adobe Adobe Illustrator 24.2.0, SVG Export Plug-In . SVG Version: 6.00 Build 0)  -->
<svg version="1.1" xmlns="http://www.w3.org/2000/svg" xmlns:xlink="http://www.w3.org/1999/xlink" x="0px" y="0px" width="1920px"
	 height="1080px" viewBox="0 0 1920 1080" style="enable-background:new 0 0 1920 1080;" xml:space="preserve">
<style type="text/css">
	.st0{fill:#FFFFFF;}
	.st1{fill:none;stroke:#000000;stroke-miterlimit:10;stroke-dasharray:0,0,0,0,0,0;}
</style>
<g id="Layer_2">
	<!-- <path class="st0" d="M480.98,424.52c-5.27,0.13-5.26,7.86,0,8C486.25,432.39,486.24,424.66,480.98,424.52z"/>
	<path class="st0" d="M1093.14,724.6c-0.89,5.04-0.89,10.19,0,15.23C1094.03,734.79,1094.03,729.63,1093.14,724.6z"/>
	<path class="st0" d="M661.64,103.51c-5.27,0.13-5.26,7.86,0,8C666.92,111.38,666.9,103.65,661.64,103.51z"/> -->
	<polygon class="st1" points="505.18,294.01 503.5,311.74 504.52,322.63 506.56,331.14 508.61,341.02 510.65,351.57 511.67,366.55 
		513.03,378.46 517.12,399.57 516.44,419.32 518.48,435.66 518.48,451.32 522.56,462.21 586.23,452.34 597.46,450.98 621.63,452.68 
		724.7,453.02 708.44,397.19 711.85,385.27 705.04,376.42 669.25,297.1 646.48,303.91 619.25,314.8 593.04,313.78 568.86,309.02 
		545.71,302.89 	"/>
</g>
</svg>
